<svg xmlns="http://www.w3.org/2000/svg" version="1.1" xmlns:xlink="http://www.w3.org/1999/xlink" xmlns:svgjs="http://svgjs.dev/svgjs" width="128" height="128" viewBox="0 0 128 128"><g transform="matrix(0.8046875,0,0,0.8046875,12.506335372881338,12.506335372881338)"><svg viewBox="0 0 59 59" data-background-color="#102e44" preserveAspectRatio="xMidYMid meet" height="128" width="128" xmlns="http://www.w3.org/2000/svg" xmlns:xlink="http://www.w3.org/1999/xlink"><g id="tight-bounds" transform="matrix(1,0,0,1,-0.0036289999999894462,-0.0036289999999894462)"><svg viewBox="0 0 59.00725799999999 59.00725799999999" height="59.00725799999999" width="59.00725799999999"><g><svg viewBox="0 0 59.00725799999999 59.00725799999999" height="59.00725799999999" width="59.00725799999999"><g><svg viewBox="0 0 59.00725799999999 59.00725799999999" height="59.00725799999999" width="59.00725799999999"><g><svg viewBox="0 0 59.00725799999999 59.00725799999999" height="59.00725799999999" width="59.00725799999999"><g id="textblocktransform"><svg viewBox="0 0 59.00725799999999 59.00725799999999" height="59.00725799999999" width="59.00725799999999" id="textblock"><g><svg viewBox="0 0 59.00725799999999 59.00725799999999" height="59.00725799999999" width="59.00725799999999"><g><svg viewBox="0 0 59.00725799999999 59.00725799999999" height="59.00725799999999" width="59.00725799999999"><g><svg xmlns="http://www.w3.org/2000/svg" xmlns:xlink="http://www.w3.org/1999/xlink" version="1.1" x="0" y="0" viewBox="0 0 64 64" enable-background="new 0 0 64 64" xml:space="preserve" height="59.00725799999999" width="59.00725799999999" class="icon-icon-0" data-fill-palette-color="accent" id="icon-0"><g fill="#b2fcfb" data-fill-palette-color="accent"><path d="M58 0H6C2.7 0 0 2.7 0 6v52c0 3.3 2.7 6 6 6h52c3.299 0 6-2.7 6-6V6C64 2.7 61.299 0 58 0zM50.805 7.285h5.986v4.912h-5.986V7.285zM7.209 7.285h23.947v4.912H7.209V7.285zM57.328 56.111H6.671V18.645h50.657V56.111z" fill="#000000" data-fill-palette-color="accent"></path><polygon points="23.662,41.776 14.259,36.063 23.662,30.554 23.662,24.695 10.18,33.638 10.18,38.611 23.662,47.593  " fill="#000000" data-fill-palette-color="accent"></polygon><polygon points="53.82,33.638 40.338,24.695 40.338,30.554 49.74,36.063 40.338,41.776 40.338,47.593 53.82,38.611  " fill="#000000" data-fill-palette-color="accent"></polygon><polygon points="37.379,21.938 33.424,21.938 26.621,50.351 30.501,50.351  " fill="#000000" data-fill-palette-color="accent"></polygon></g></svg></g></svg></g></svg></g></svg></g></svg></g></svg></g></svg></g><defs></defs></svg><rect width="59.00725799999999" height="59.00725799999999" fill="none" stroke="none" visibility="hidden"></rect></g></svg></g></svg>