<svg xmlns="http://www.w3.org/2000/svg" version="1.1" xmlns:xlink="http://www.w3.org/1999/xlink" xmlns:svgjs="http://svgjs.dev/svgjs" width="1000" height="335" viewBox="0 0 1000 335"><g transform="matrix(1,0,0,1,-0.6060427818161997,0.10224464846155001)"><svg viewBox="0 0 396 133" data-background-color="#102e44" preserveAspectRatio="xMidYMid meet" height="335" width="1000" xmlns="http://www.w3.org/2000/svg" xmlns:xlink="http://www.w3.org/1999/xlink"><g id="tight-bounds" transform="matrix(1,0,0,1,0.23999294159921192,-0.0405926514787609)"><svg viewBox="0 0 395.52 133.08118530295755" height="133.08118530295755" width="395.52"><g><svg viewBox="0 0 395.52 133.08118530295755" height="133.08118530295755" width="395.52"><g><svg viewBox="0 0 395.52 133.08118530295755" height="133.08118530295755" width="395.52"><g><svg viewBox="0 0 652.6174473824242 219.5871345242808" height="133.08118530295755" width="395.52"><g transform="matrix(1,0,0,1,257.09744738242415,30.348149561604657)"><svg viewBox="0 0 395.52 158.89083540107148" height="158.89083540107148" width="395.52"><g id="textblocktransform"><svg viewBox="0 0 395.52 158.89083540107148" height="158.89083540107148" width="395.52" id="textblock"><g><svg viewBox="0 0 395.52 158.89083540107148" height="158.89083540107148" width="395.52"><g transform="matrix(1,0,0,1,0,0)"><svg width="395.52" viewBox="4.050000190734863 -39.93333053588867 100.39999389648438 40.33333206176758" height="158.89083540107148" data-palette-color="#ffffff"><path d="M9.95-34.65L9.95-2.1Q9.95 0.3 7 0.3L7 0.3Q4.05 0.3 4.05-2.1L4.05-2.1 4.05-36.7Q4.05-37.85 4.7-38.78 5.35-39.7 7.2-39.7L7.2-39.7 24.2-39.7Q26-39.7 26.1-37.2L26.1-37.2Q26.2-34.65 24.2-34.65L24.2-34.65 9.95-34.65ZM22.75-20.65L22.75-20.65Q22.75-19.8 22.43-19.03 22.1-18.25 21.53-17.7 20.95-17.15 20.2-16.82 19.45-16.5 18.55-16.5L18.55-16.5Q16.85-16.5 15.65-17.7 14.45-18.9 14.45-20.65L14.45-20.65Q14.45-22.4 15.65-23.6 16.85-24.8 18.55-24.8L18.55-24.8Q19.45-24.8 20.2-24.48 20.95-24.15 21.53-23.58 22.1-23 22.43-22.25 22.75-21.5 22.75-20.65ZM60.7-11.25L67.15-38.05 67.1-38Q67.4-39.1 68.27-39.6 69.15-40.1 70.6-39.85L70.6-39.85Q72.05-39.6 72.67-38.95 73.3-38.3 72.95-37.15L72.95-37.15 63.95-1.3 63.95-1.35Q63.7-0.5 62.82-0.05 61.95 0.4 61 0.4L61 0.4Q59.9 0.4 58.92 0.08 57.95-0.25 57.7-1.25L57.7-1.25 57.75-1.2 51.6-25.6 50.25-25.6 44.15-1.25Q43.9-0.4 42.9 0 41.9 0.4 40.85 0.4L40.85 0.4Q39.55 0.4 38.77 0.03 38-0.35 37.75-1.3L37.75-1.3 37.8-1.25 28.8-37.15Q28.55-38.15 29.25-38.88 29.95-39.6 31.25-39.85L31.25-39.85Q34.05-40.3 34.65-38L34.65-38 34.6-38.05 36.85-29Q37.3-27.2 37.75-25.33 38.2-23.45 38.75-21.33 39.3-19.2 39.95-16.7 40.6-14.2 41.4-11.1L41.4-11.1 47.8-38.1Q48.05-39.2 48.95-39.55 49.85-39.9 50.95-39.9L50.95-39.9Q51.95-39.9 52.9-39.53 53.85-39.15 54.1-38L54.1-38 60.7-11.25ZM104.45-11.3L104.45-8Q104.45-3.95 101.75-1.95L101.75-1.95Q100.45-1 99.07-0.48 97.7 0.05 96.4 0.05L96.4 0.05 85.5 0.05Q84.2 0.05 82.82-0.48 81.45-1 80.15-1.95L80.15-1.95Q78.84-2.95 78.15-4.42 77.45-5.9 77.45-8L77.45-8 77.45-31.75Q77.45-33.75 78.15-35.27 78.84-36.8 80.15-37.75L80.15-37.75 80.09-37.75Q81.4-38.6 82.8-39.15 84.2-39.7 85.5-39.7L85.5-39.7 96.4-39.7Q97.7-39.7 99.09-39.15 100.5-38.6 101.8-37.75L101.8-37.75 101.75-37.75Q103.05-36.8 103.75-35.27 104.45-33.75 104.45-31.75L104.45-31.75 104.45-28.3Q104.45-25.9 101.45-25.9L101.45-25.9Q98.5-25.9 98.5-28.3L98.5-28.3 98.5-31.3Q98.5-32.55 97.75-33.6 97-34.65 95.15-34.65L95.15-34.65 86.75-34.65Q84.9-34.65 84.15-33.6 83.4-32.55 83.4-31.3L83.4-31.3 83.4-8.4Q83.4-7.1 84.15-6.05 84.9-5 86.75-5L86.75-5 95.15-5Q97-5 97.75-6.05 98.5-7.1 98.5-8.4L98.5-8.4 98.5-11.3Q98.5-13.65 101.45-13.65L101.45-13.65Q104.45-13.65 104.45-11.3L104.45-11.3Z" opacity="1" transform="matrix(1,0,0,1,0,0)" fill="#000000" class="undefined-text-0" data-fill-palette-color="primary" id="text-0"></path></svg></g></svg></g></svg></g></svg></g><g><svg viewBox="0 0 219.5871345242808 219.5871345242808" height="219.5871345242808" width="219.5871345242808"><g><svg xmlns="http://www.w3.org/2000/svg" xmlns:xlink="http://www.w3.org/1999/xlink" version="1.1" x="0" y="0" viewBox="0 0 64 64" enable-background="new 0 0 64 64" xml:space="preserve" height="219.5871345242808" width="219.5871345242808" class="icon-icon-0" data-fill-palette-color="accent" id="icon-0"><g fill="#b2fcfb" data-fill-palette-color="accent"><path d="M58 0H6C2.7 0 0 2.7 0 6v52c0 3.3 2.7 6 6 6h52c3.299 0 6-2.7 6-6V6C64 2.7 61.299 0 58 0zM50.805 7.285h5.986v4.912h-5.986V7.285zM7.209 7.285h23.947v4.912H7.209V7.285zM57.328 56.111H6.671V18.645h50.657V56.111z" fill="#000000" data-fill-palette-color="accent"></path><polygon points="23.662,41.776 14.259,36.063 23.662,30.554 23.662,24.695 10.18,33.638 10.18,38.611 23.662,47.593  " fill="#000000" data-fill-palette-color="accent"></polygon><polygon points="53.82,33.638 40.338,24.695 40.338,30.554 49.74,36.063 40.338,41.776 40.338,47.593 53.82,38.611  " fill="#000000" data-fill-palette-color="accent"></polygon><polygon points="37.379,21.938 33.424,21.938 26.621,50.351 30.501,50.351  " fill="#000000" data-fill-palette-color="accent"></polygon></g></svg></g></svg></g></svg></g></svg></g></svg></g><defs></defs></svg><rect width="395.52" height="133.08118530295755" fill="none" stroke="none" visibility="hidden"></rect></g></svg></g></svg>